<svg xmlns="http://www.w3.org/2000/svg" viewBox="0 0 48 48" width="24" height="24">
    <path fill="#4285F4" d="M23.999 12.001c0-.001 0-.001 0 0-1.5 0-2.9.5-4.1 1.4l-1.4-1.4C20.1 10.1 22.5 8.5 25.5 8.5c3.5 0 6.5 2.5 7.5 5.8h-7.5v3.7h7.5c-.5 3.3-3.5 5.8-7.5 5.8-4.1 0-7.5-3.4-7.5-7.5s3.4-7.5 7.5-7.5c1.9 0 3.7.7 5.1 1.9l1.4-1.4C25.9 6.5 24.5 5.5 23 5.5c-5.5 0-10 4.5-10 10s4.5 10 10 10c5.5 0 10-4.5 10-10s-4.5-10-10-10z"/>
    <path fill="#34A853" d="M12.5 24c0 1.5.5 2.9 1.4 4.1l-1.4 1.4C10.1 28.1 8.5 25.7 8.5 22.5c0-3.5 2.5-6.5 5.8-7.5v7.5h3.7c-3.3.5-5.8 3.5-5.8 7.5z"/>
    <path fill="#FBBC05" d="M8.5 22.5c0 1.5.5 2.9 1.4 4.1l1.4-1.4C10.1 28.1 8.5 25.7 8.5 22.5c0-3.5 2.5-6.5 5.8-7.5v7.5h3.7c-3.3.5-5.8 3.5-5.8 7.5z"/>
    <path fill="#EA4335" d="M23.999 12.001c0-.001 0-.001 0 0-1.5 0-2.9.5-4.1 1.4l-1.4-1.4C20.1 10.1 22.5 8.5 25.5 8.5c3.5 0 6.5 2.5 7.5 5.8h-7.5v3.7h7.5c-.5 3.3-3.5 5.8-7.5 5.8-4.1 0-7.5-3.4-7.5-7.5s3.4-7.5 7.5-7.5c1.9 0 3.7.7 5.1 1.9l1.4-1.4C25.9 6.5 24.5 5.5 23 5.5c-5.5 0-10 4.5-10 10s4.5 10 10 10c5.5 0 10-4.5 10-10s-4.5-10-10-10z"/>
</svg>